#!OML:ASF E:\id_vita\Project 1\Capture day 1\Session 1\Male1.ASF
:FULLY-SPECIFIED
:DEGREES
766
root -23.9926 14.9673 -4.18592 543.995 -37.5295 -535.489
lowerback 3.54501 -3.59166 -7.36776
upperback 3.47316 -5.14508 -2.91333
thorax 1.98213 -2.78957 1.16561
lowerneck -3.87416 -1.42875 0.432464
upperneck -23.4972 -3.36761 4.60242
head -6.43505 -2.90138 1.65236
rclavicle 5.32743e-014 -1.27222e-014
rhumerus -29.0218 3.3073 -92.2503
rradius 29.7884
rwrist 3.62878
rhand -19.0827 35.455
rfingers 7.12502
rthumb 7.22528 5.59831
lclavicle 5.32743e-014 -1.27222e-014
lhumerus -16.6381 20.0307 76.4143
lradius 15.9499
lwrist -12.9894
lhand -12.2495 47.6185
lfingers 7.12502
lthumb 13.8165 77.1396
rfemur -34.6154 -5.64602 30.4829
rtibia 52.0308
rfoot -22.4794 -5.06579
rtoes 13.5087
lfemur -6.38322 11.2108 -16.5574
ltibia 42.2612
lfoot -38.5352 -8.32344
ltoes 35.5187
767
root -24.0003 14.9736 -4.19287 543.853 -37.5233 -535.205
lowerback 3.46324 -3.64452 -7.04762
upperback 3.4337 -5.19292 -2.8339
thorax 1.96803 -2.80191 1.06906
lowerneck -3.8208 -1.43518 0.341852
upperneck -23.5482 -3.38208 4.59855
head -6.45863 -2.903 1.66957
rclavicle 9.18385e-014 1.43125e-014
rhumerus -29.0143 3.6404 -92.3281
rradius 29.7688
rwrist 3.48366
rhand -19.2652 35.3519
rfingers 7.12502
rthumb 7.04916 5.48931
lclavicle 9.18385e-014 1.43125e-014
lhumerus -16.7647 21.0531 76.2458
lradius 15.8625
lwrist -13.8337
lhand -12.3855 48.8468
lfingers 7.12502
lthumb 13.6855 78.3769
rfemur -34.4783 -5.64482 30.711
rtibia 51.7977
rfoot -22.4577 -4.97581
rtoes 13.482
lfemur -6.28916 11.1334 -16.3375
ltibia 42.1032
lfoot -38.5078 -8.44438
ltoes 36.0111
768
root -24.008 14.9777 -4.19963 543.934 -37.5592 -535.253
lowerback 3.31652 -3.57613 -6.87793
upperback 3.46967 -5.086 -2.93289
thorax 2.05478 -2.74832 0.862432
lowerneck -3.77209 -1.50396 0.497665
upperneck -23.7295 -3.49901 4.56848
head -6.52747 -2.98179 1.64507
rclavicle 4.96962e-014 7.4743e-014
rhumerus -28.8886 3.64488 -92.4304
rradius 29.8237
rwrist 3.1824
rhand -19.4817 35.4874
rfingers 7.12502
rthumb 6.84014 5.61785
lclavicle 4.96962e-014 7.4743e-014
lhumerus -16.6357 20.83 76.2956
lradius 15.7873
lwrist -13.9302
lhand -12.1465 47.6622
lfingers 7.12502
lthumb 13.9158 77.1765
rfemur -34.4812 -5.99135 30.7377
rtibia 51.7499
rfoot -22.4571 -5.24046
rtoes 11.7736
lfemur -6.18831 11.0263 -16.4122
ltibia 41.8662
lfoot -38.4753 -8.47191
ltoes 36.2351
769
root -24.007 14.9823 -4.20629 544.638 -37.5437 -536.163
lowerback 3.1859 -3.63656 -7.63416
upperback 3.35452 -5.18436 -3.0809
thorax 2.07189 -2.81407 1.11642
lowerneck -3.47966 -1.42895 0.439981
upperneck -23.8162 -3.37153 4.57406
head -6.60626 -2.91305 1.65922
rclavicle 1.27222e-014 -1.27222e-014
rhumerus -29.027 4.07093 -92.5572
rradius 30.1266
rwrist 2.84509
rhand -19.4474 35.6189
rfingers 7.12502
rthumb 6.87328 5.75046
lclavicle 1.27222e-014 -1.27222e-014
lhumerus -16.8517 21.1733 76.1669
lradius 15.7645
lwrist -14.1826
lhand -11.8214 47.1827
lfingers 7.12502
lthumb 14.2291 76.6753
rfemur -34.602 -5.29897 29.824
rtibia 51.7024
rfoot -22.3006 -5.60737
rtoes 12.2676
lfemur -6.22352 10.8853 -17.2588
ltibia 41.6025
lfoot -38.3964 -8.29812
ltoes 36.3982
770
root -24.0032 14.978 -4.21517 545.294 -37.4306 -536.957
lowerback 2.9826 -3.5202 -8.25045
upperback 3.33959 -5.03791 -3.31851
thorax 2.19329 -2.76303 1.19212
lowerneck -3.74253 -1.49041 0.606541
upperneck -23.6848 -3.45838 4.61155
head -6.51988 -2.96994 1.63792
rclavicle 5.96354e-014 1.59028e-015
rhumerus -28.9981 3.55274 -92.5887
rradius 30.4241
rwrist 2.98988
rhand -19.3039 35.5816
rfingers 7.12502
rthumb 7.01178 5.71771
lclavicle 5.96354e-014 1.59028e-015
lhumerus -16.6581 21.0027 76.1352
lradius 15.6405
lwrist -14.3486
lhand -11.5413 47.1721
lfingers 7.12502
lthumb 14.499 76.6455
rfemur -34.8587 -5.78661 29.2909
rtibia 51.6379
rfoot -22.2957 -5.19437
rtoes 11.2156
lfemur -6.29859 10.797 -18.0063
ltibia 41.3667
lfoot -38.3963 -7.97851
ltoes 36.1852
